<svg width="193" height="57" viewBox="0 0 193 57" fill="none" xmlns="http://www.w3.org/2000/svg">
<rect width="192.375" height="57" rx="5" fill="black"/>
<path d="M97.0938 30.9953C93.7422 30.9953 91.0105 33.5446 91.0105 37.0558C91.0105 40.5457 93.7422 43.1164 97.0938 43.1164C100.447 43.1164 103.179 40.5457 103.179 37.0558C103.177 33.5446 100.445 30.9953 97.0938 30.9953ZM97.0938 40.7309C95.257 40.7309 93.6738 39.2161 93.6738 37.0573C93.6738 34.8756 95.2584 33.3836 97.0938 33.3836C98.9306 33.3836 100.514 34.8756 100.514 37.0573C100.514 39.2147 98.9306 40.7309 97.0938 40.7309ZM83.8214 30.9953C80.4698 30.9953 77.738 33.5446 77.738 37.0558C77.738 40.5457 80.4698 43.1164 83.8214 43.1164C87.1744 43.1164 89.9061 40.5457 89.9061 37.0558C89.9061 33.5446 87.1744 30.9953 83.8214 30.9953ZM83.8214 40.7309C81.9845 40.7309 80.4014 39.2161 80.4014 37.0573C80.4014 34.8756 81.986 33.3836 83.8214 33.3836C85.6582 33.3836 87.2414 34.8756 87.2414 37.0573C87.2428 39.2147 85.6582 40.7309 83.8214 40.7309ZM68.0352 32.8564V35.4271H74.1884C74.0045 36.8734 73.5229 37.9294 72.7876 38.6632C71.8927 39.5581 70.4919 40.5457 68.0352 40.5457C64.2476 40.5457 61.2864 37.4919 61.2864 33.7042C61.2864 29.9166 64.2476 26.8628 68.0352 26.8628C70.0787 26.8628 71.5706 27.6665 72.6722 28.6996L74.4862 26.8856C72.9472 25.4164 70.9052 24.2921 68.0352 24.2921C62.8468 24.2921 58.4849 28.5158 58.4849 33.7042C58.4849 38.8927 62.8468 43.1164 68.0352 43.1164C70.8353 43.1164 72.9486 42.1972 74.6002 40.4758C76.2988 38.7772 76.8275 36.3889 76.8275 34.4609C76.8275 33.8653 76.7819 33.3138 76.6892 32.8549H68.0352V32.8564ZM132.599 34.8528C132.095 33.499 130.556 30.9953 127.411 30.9953C124.289 30.9953 121.694 33.452 121.694 37.0558C121.694 40.453 124.266 43.1164 127.709 43.1164C130.486 43.1164 132.093 41.4178 132.76 40.4302L130.694 39.0523C130.006 40.0626 129.064 40.7281 127.709 40.7281C126.355 40.7281 125.39 40.1082 124.77 38.8912L132.874 35.5396L132.599 34.8528ZM124.334 36.8734C124.266 34.5307 126.148 33.338 127.503 33.338C128.559 33.338 129.454 33.8667 129.753 34.6234L124.334 36.8734ZM117.746 42.7501H120.408V24.9362H117.746V42.7501ZM113.383 32.3505H113.292C112.695 31.638 111.546 30.9953 110.101 30.9953C107.07 30.9953 104.293 33.6586 104.293 37.0801C104.293 40.4773 107.07 43.1178 110.101 43.1178C111.548 43.1178 112.695 42.4751 113.292 41.7412H113.383V42.6133C113.383 44.9318 112.143 46.1716 110.147 46.1716C108.517 46.1716 107.506 45.0016 107.093 44.0141L104.775 44.9788C105.44 46.5848 107.207 48.5599 110.147 48.5599C113.269 48.5599 115.91 46.723 115.91 42.2457V31.3644H113.384V32.3505H113.383ZM110.331 40.7309C108.494 40.7309 106.956 39.1919 106.956 37.0801C106.956 34.944 108.494 33.3836 110.331 33.3836C112.143 33.3836 113.567 34.944 113.567 37.0801C113.567 39.1919 112.143 40.7309 110.331 40.7309ZM145.074 24.9362H138.702V42.7501H141.36V36.0013H145.072C148.019 36.0013 150.917 33.8681 150.917 30.4695C150.917 27.0709 148.02 24.9362 145.074 24.9362ZM145.142 33.5218H141.36V27.4157H145.142C147.13 27.4157 148.258 29.0616 148.258 30.4695C148.258 31.8489 147.13 33.5218 145.142 33.5218ZM161.575 30.964C159.65 30.964 157.656 31.8118 156.831 33.6914L159.191 34.6761C159.695 33.6914 160.636 33.3694 161.621 33.3694C162.996 33.3694 164.394 34.1944 164.417 35.6608V35.8446C163.935 35.5696 162.903 35.1577 161.643 35.1577C159.1 35.1577 156.509 36.5557 156.509 39.1677C156.509 41.5517 158.595 43.0864 160.932 43.0864C162.719 43.0864 163.705 42.2842 164.324 41.3437H164.415V42.7188H166.983V35.8888C166.984 32.7281 164.622 30.964 161.575 30.964ZM161.253 40.7266C160.384 40.7266 159.168 40.2906 159.168 39.2133C159.168 37.8382 160.682 37.3109 161.988 37.3109C163.155 37.3109 163.707 37.5631 164.417 37.9066C164.21 39.5581 162.789 40.7266 161.253 40.7266ZM176.334 31.353L173.286 39.0765H173.195L170.031 31.353H167.167L171.911 42.1474L169.206 48.1523H171.979L179.291 31.353H176.334ZM152.385 42.7501H155.043V24.9362H152.385V42.7501Z" fill="white"/>
<path d="M67.5707 14.5962C67.5707 15.7903 67.2173 16.7408 66.5091 17.4505C65.7054 18.2941 64.6566 18.7159 63.3684 18.7159C62.1343 18.7159 61.0841 18.2883 60.222 17.4333C59.3584 16.5769 58.9266 15.5167 58.9266 14.2513C58.9266 12.9845 59.3584 11.9243 60.222 11.0693C61.0841 10.2129 62.1343 9.78538 63.3684 9.78538C63.9811 9.78538 64.5668 9.90508 65.1225 10.1431C65.6797 10.3825 66.1257 10.7002 66.4592 11.0978L65.7082 11.8502C65.1425 11.1733 64.363 10.8356 63.3669 10.8356C62.4663 10.8356 61.6883 11.152 61.0314 11.7847C60.3744 12.4174 60.0467 13.2396 60.0467 14.2499C60.0467 15.2602 60.3744 16.0824 61.0314 16.7151C61.6883 17.3478 62.4663 17.6642 63.3669 17.6642C64.3217 17.6642 65.1183 17.3464 65.7552 16.7095C66.1685 16.2948 66.4079 15.7177 66.472 14.9781H63.3669V13.9507H67.5094C67.5522 14.1744 67.5707 14.3896 67.5707 14.5962Z" fill="white"/>
<path d="M74.1401 11.0252H70.247V13.7356H73.7582V14.763H70.247V17.4733H74.1401V18.525H69.1483V9.97498H74.1401V11.0252Z" fill="white"/>
<path d="M78.7726 18.525H77.6739V11.0252H75.2856V9.97498H81.1609V11.0252H78.7726V18.525Z" fill="white"/>
<path d="M85.4116 18.525V9.97498H86.5103V18.525H85.4116Z" fill="white"/>
<path d="M91.3826 18.525H90.2839V11.0252H87.8956V9.97498H93.7709V11.0252H91.3826V18.525Z" fill="white"/>
<path d="M104.893 17.4206C104.052 18.2841 103.007 18.7159 101.758 18.7159C100.508 18.7159 99.4634 18.2841 98.6241 17.4206C97.7834 16.557 97.3644 15.4997 97.3644 14.25C97.3644 13.0002 97.7834 11.9429 98.6241 11.0793C99.4634 10.2158 100.508 9.78259 101.758 9.78259C103 9.78259 104.043 10.2172 104.887 11.085C105.731 11.9529 106.152 13.0074 106.152 14.25C106.152 15.4997 105.732 16.557 104.893 17.4206ZM99.4349 16.7038C100.068 17.3451 100.841 17.6643 101.758 17.6643C102.674 17.6643 103.449 17.3436 104.08 16.7038C104.713 16.0626 105.031 15.2446 105.031 14.25C105.031 13.2553 104.713 12.4374 104.08 11.7961C103.449 11.1549 102.674 10.8357 101.758 10.8357C100.841 10.8357 100.068 11.1563 99.4349 11.7961C98.8037 12.4374 98.4859 13.2553 98.4859 14.25C98.4859 15.2446 98.8037 16.0626 99.4349 16.7038Z" fill="white"/>
<path d="M107.694 18.525V9.97498H109.031L113.186 16.6255H113.233L113.186 14.9782V9.97498H114.285V18.525H113.138L108.79 11.551H108.743L108.79 13.1983V18.525H107.694Z" fill="white"/>
<path d="M67.5707 14.5962C67.5707 15.7903 67.2173 16.7408 66.5091 17.4505C65.7054 18.2941 64.6566 18.7159 63.3684 18.7159C62.1343 18.7159 61.0841 18.2883 60.222 17.4333C59.3584 16.5769 58.9266 15.5167 58.9266 14.2513C58.9266 12.9845 59.3584 11.9243 60.222 11.0693C61.0841 10.2129 62.1343 9.78538 63.3684 9.78538C63.9811 9.78538 64.5668 9.90508 65.1225 10.1431C65.6797 10.3825 66.1257 10.7002 66.4592 11.0978L65.7082 11.8502C65.1425 11.1733 64.363 10.8356 63.3669 10.8356C62.4663 10.8356 61.6883 11.152 61.0314 11.7847C60.3744 12.4174 60.0467 13.2396 60.0467 14.2499C60.0467 15.2602 60.3744 16.0824 61.0314 16.7151C61.6883 17.3478 62.4663 17.6642 63.3669 17.6642C64.3217 17.6642 65.1183 17.3464 65.7552 16.7095C66.1685 16.2948 66.4079 15.7177 66.472 14.9781H63.3669V13.9507H67.5094C67.5522 14.1744 67.5707 14.3896 67.5707 14.5962Z" stroke="white" stroke-width="0.2" stroke-miterlimit="10"/>
<path d="M74.1401 11.0252H70.247V13.7356H73.7582V14.763H70.247V17.4733H74.1401V18.525H69.1483V9.97498H74.1401V11.0252Z" stroke="white" stroke-width="0.2" stroke-miterlimit="10"/>
<path d="M78.7726 18.525H77.6739V11.0252H75.2856V9.97498H81.1609V11.0252H78.7726V18.525Z" stroke="white" stroke-width="0.2" stroke-miterlimit="10"/>
<path d="M85.4116 18.525V9.97498H86.5103V18.525H85.4116Z" stroke="white" stroke-width="0.2" stroke-miterlimit="10"/>
<path d="M91.3826 18.525H90.2839V11.0252H87.8956V9.97498H93.7709V11.0252H91.3826V18.525Z" stroke="white" stroke-width="0.2" stroke-miterlimit="10"/>
<path d="M104.893 17.4206C104.052 18.2841 103.007 18.7159 101.758 18.7159C100.508 18.7159 99.4634 18.2841 98.6241 17.4206C97.7834 16.557 97.3644 15.4997 97.3644 14.25C97.3644 13.0002 97.7834 11.9429 98.6241 11.0793C99.4634 10.2158 100.508 9.78259 101.758 9.78259C103 9.78259 104.043 10.2172 104.887 11.085C105.731 11.9529 106.152 13.0074 106.152 14.25C106.152 15.4997 105.732 16.557 104.893 17.4206ZM99.4349 16.7038C100.068 17.3451 100.841 17.6643 101.758 17.6643C102.674 17.6643 103.449 17.3436 104.08 16.7038C104.713 16.0626 105.031 15.2446 105.031 14.25C105.031 13.2553 104.713 12.4374 104.08 11.7961C103.449 11.1549 102.674 10.8357 101.758 10.8357C100.841 10.8357 100.068 11.1563 99.4349 11.7961C98.8037 12.4374 98.4859 13.2553 98.4859 14.25C98.4859 15.2446 98.8037 16.0626 99.4349 16.7038Z" stroke="white" stroke-width="0.2" stroke-miterlimit="10"/>
<path d="M107.694 18.525V9.97498H109.031L113.186 16.6255H113.233L113.186 14.9782V9.97498H114.285V18.525H113.138L108.79 11.551H108.743L108.79 13.1983V18.525H107.694Z" stroke="white" stroke-width="0.2" stroke-miterlimit="10"/>
<g filter="url(#filter0_ii_2_299)">
<path d="M14.8713 10.7416C14.4566 11.1805 14.2115 11.8616 14.2115 12.7437V44.259C14.2115 45.1425 14.4566 45.8222 14.8713 46.2611L14.9768 46.3637L32.6311 28.7094V28.5014V28.2933L14.9768 10.6376L14.8713 10.7416Z" fill="url(#paint0_linear_2_299)"/>
<path d="M38.5149 34.5961L32.6311 28.7094V28.5014V28.2933L38.5164 22.4081L38.6489 22.4836L45.6214 26.4451C47.6121 27.5766 47.6121 29.4276 45.6214 30.5605L38.6489 34.522L38.5149 34.5961Z" fill="url(#paint1_linear_2_299)"/>
<g filter="url(#filter1_i_2_299)">
<path d="M38.6489 34.5205L32.6297 28.5013L14.8713 46.2611C15.5268 46.9565 16.6113 47.042 17.8325 46.3495L38.6489 34.5205Z" fill="url(#paint2_linear_2_299)"/>
</g>
<path d="M38.6489 22.4822L17.8325 10.6547C16.6113 9.96071 15.5268 10.0476 14.8713 10.743L32.6311 28.5028L38.6489 22.4822Z" fill="url(#paint3_linear_2_299)"/>
</g>
<defs>
<filter id="filter0_ii_2_299" x="14.2115" y="10.1758" width="32.903" height="36.652" filterUnits="userSpaceOnUse" color-interpolation-filters="sRGB">
<feFlood flood-opacity="0" result="BackgroundImageFix"/>
<feBlend mode="normal" in="SourceGraphic" in2="BackgroundImageFix" result="shape"/>
<feColorMatrix in="SourceAlpha" type="matrix" values="0 0 0 0 0 0 0 0 0 0 0 0 0 0 0 0 0 0 127 0" result="hardAlpha"/>
<feOffset dy="-0.15"/>
<feComposite in2="hardAlpha" operator="arithmetic" k2="-1" k3="1"/>
<feColorMatrix type="matrix" values="0 0 0 0 0 0 0 0 0 0 0 0 0 0 0 0 0 0 0.12 0"/>
<feBlend mode="normal" in2="shape" result="effect1_innerShadow_2_299"/>
<feColorMatrix in="SourceAlpha" type="matrix" values="0 0 0 0 0 0 0 0 0 0 0 0 0 0 0 0 0 0 127 0" result="hardAlpha"/>
<feOffset dy="0.15"/>
<feComposite in2="hardAlpha" operator="arithmetic" k2="-1" k3="1"/>
<feColorMatrix type="matrix" values="0 0 0 0 1 0 0 0 0 1 0 0 0 0 1 0 0 0 0.25 0"/>
<feBlend mode="normal" in2="effect1_innerShadow_2_299" result="effect2_innerShadow_2_299"/>
</filter>
<filter id="filter1_i_2_299" x="14.8713" y="28.5013" width="23.7776" height="18.3264" filterUnits="userSpaceOnUse" color-interpolation-filters="sRGB">
<feFlood flood-opacity="0" result="BackgroundImageFix"/>
<feBlend mode="normal" in="SourceGraphic" in2="BackgroundImageFix" result="shape"/>
<feColorMatrix in="SourceAlpha" type="matrix" values="0 0 0 0 0 0 0 0 0 0 0 0 0 0 0 0 0 0 127 0" result="hardAlpha"/>
<feOffset dy="-0.15"/>
<feComposite in2="hardAlpha" operator="arithmetic" k2="-1" k3="1"/>
<feColorMatrix type="matrix" values="0 0 0 0 0 0 0 0 0 0 0 0 0 0 0 0 0 0 0.08 0"/>
<feBlend mode="normal" in2="shape" result="effect1_innerShadow_2_299"/>
</filter>
<linearGradient id="paint0_linear_2_299" x1="31.0662" y1="12.4103" x2="7.15181" y2="36.3246" gradientUnits="userSpaceOnUse">
<stop stop-color="#00A0FF"/>
<stop offset="0.0066" stop-color="#00A1FF"/>
<stop offset="0.2601" stop-color="#00BEFF"/>
<stop offset="0.5122" stop-color="#00D2FF"/>
<stop offset="0.7604" stop-color="#00DFFF"/>
<stop offset="1" stop-color="#00E3FF"/>
</linearGradient>
<linearGradient id="paint1_linear_2_299" x1="48.2128" y1="28.5014" x2="13.7336" y2="28.5014" gradientUnits="userSpaceOnUse">
<stop stop-color="#FFE000"/>
<stop offset="0.4087" stop-color="#FFBD00"/>
<stop offset="0.7754" stop-color="#FFA500"/>
<stop offset="1" stop-color="#FF9C00"/>
</linearGradient>
<linearGradient id="paint2_linear_2_299" x1="35.3801" y1="31.7702" x2="2.94922" y2="64.201" gradientUnits="userSpaceOnUse">
<stop stop-color="#FF3A44"/>
<stop offset="1" stop-color="#C31162"/>
</linearGradient>
<linearGradient id="paint3_linear_2_299" x1="10.3988" y1="0.251905" x2="24.8801" y2="14.7332" gradientUnits="userSpaceOnUse">
<stop stop-color="#32A071"/>
<stop offset="0.0685" stop-color="#2DA771"/>
<stop offset="0.4762" stop-color="#15CF74"/>
<stop offset="0.8009" stop-color="#06E775"/>
<stop offset="1" stop-color="#00F076"/>
</linearGradient>
</defs>
</svg>
