<svg width="202" height="49" viewBox="0 0 202 49" fill="none" xmlns="http://www.w3.org/2000/svg">
<path d="M66 40H71.6V29.08H72.64C73 29.92 73.32 30.52 73.72 31.12L79.68 40H86.28L78.44 28.56C82.68 27.64 85.16 24.92 85.16 20.48C85.16 15 81.32 11.92 75.04 11.96L66 12V40ZM71.6 24.04V17.04H74.72C77.76 17.04 79.48 18.28 79.48 20.52C79.48 22.8 77.76 24.04 74.72 24.04H71.6ZM87.6313 40H93.0313V28.6C93.0313 25 95.0713 23.44 97.3513 23.44C100.031 23.44 101.831 25 101.831 28.6V40H107.231V27.28C107.231 22.04 103.791 18.72 99.3113 18.72C96.1913 18.72 94.1513 19.84 93.0313 22.08V10.8H87.6313V40ZM111.353 48.36C116.233 48.36 118.833 45.52 120.593 41.32L129.793 19.2H123.393L119.353 31.08C118.993 32.08 118.673 33.32 118.473 34.4C118.273 33.32 117.953 32.08 117.593 31.08L113.553 19.2H107.033L115.273 39.04L114.993 39.92C114.393 41.76 113.073 43.08 110.993 43.08C110.113 43.08 109.353 43 108.553 42.8L107.753 47.96C108.833 48.28 110.273 48.36 111.353 48.36ZM139.261 40H142.221V35.2H139.981C138.941 35.2 138.301 34.6 138.301 33.28V23.8H142.701V19.2H138.301V14.44L132.901 15V19.2H129.981V23.8H132.901V33.56C132.901 38.08 135.141 40 139.261 40ZM144.506 40H149.906V28.6C149.906 25 151.946 23.44 154.226 23.44C156.906 23.44 158.706 25 158.706 28.6V40H164.106V27.28C164.106 22.04 160.666 18.72 156.186 18.72C153.066 18.72 151.026 19.84 149.906 22.08V10.8H144.506V40ZM167.123 40H172.523V28.6C172.523 25 174.563 23.44 176.843 23.44C179.523 23.44 181.323 25 181.323 28.6V40H186.723V28.6C186.723 24.6 188.443 23.44 190.963 23.44C193.403 23.44 195.123 25 195.123 28.6V40H200.523V27.28C200.523 22.04 197.083 18.72 192.603 18.72C188.963 18.72 186.963 20.12 185.563 22.64C184.203 20.12 181.723 18.72 178.803 18.72C175.603 18.72 173.523 19.92 172.443 22.24V19.2H167.123V40Z" fill="#121212"/>
<path d="M66 40H65V41H66V40ZM71.6 40V41H72.6V40H71.6ZM71.6 29.08V28.08H70.6V29.08H71.6ZM72.64 29.08L73.5591 28.6861L73.2994 28.08H72.64V29.08ZM73.72 31.12L72.8879 31.6747L72.8897 31.6773L73.72 31.12ZM79.68 40L78.8497 40.5573L79.1468 41H79.68V40ZM86.28 40V41H88.1776L87.1049 39.4347L86.28 40ZM78.44 28.56L78.228 27.5827L76.7742 27.8982L77.6151 29.1253L78.44 28.56ZM75.04 11.96L75.0444 12.96L75.0464 12.96L75.04 11.96ZM66 12L65.9956 11L65 11.0044V12H66ZM71.6 24.04H70.6V25.04H71.6V24.04ZM71.6 17.04V16.04H70.6V17.04H71.6ZM66 41H71.6V39H66V41ZM72.6 40V29.08H70.6V40H72.6ZM71.6 30.08H72.64V28.08H71.6V30.08ZM71.7209 29.4739C72.1 30.3586 72.4478 31.0145 72.888 31.6747L74.5521 30.5653C74.1922 30.0255 73.9 29.4814 73.5591 28.6861L71.7209 29.4739ZM72.8897 31.6773L78.8497 40.5573L80.5103 39.4427L74.5503 30.5627L72.8897 31.6773ZM79.68 41H86.28V39H79.68V41ZM87.1049 39.4347L79.2649 27.9947L77.6151 29.1253L85.4551 40.5653L87.1049 39.4347ZM78.652 29.5373C80.9302 29.0429 82.826 28.0442 84.1512 26.4885C85.482 24.9262 86.16 22.893 86.16 20.48H84.16C84.16 22.507 83.598 24.0538 82.6288 25.1915C81.654 26.3358 80.1898 27.1571 78.228 27.5827L78.652 29.5373ZM86.16 20.48C86.16 17.4889 85.101 15.0485 83.0941 13.3809C81.1123 11.7341 78.3252 10.9391 75.0336 10.96L75.0464 12.96C78.0348 12.9409 80.3077 13.6659 81.8159 14.9191C83.299 16.1515 84.16 17.9911 84.16 20.48H86.16ZM75.0356 10.96L65.9956 11L66.0044 13L75.0444 12.96L75.0356 10.96ZM65 12V40H67V12H65ZM72.6 24.04V17.04H70.6V24.04H72.6ZM71.6 18.04H74.72V16.04H71.6V18.04ZM74.72 18.04C76.1257 18.04 77.077 18.33 77.6512 18.7483C78.1793 19.133 78.48 19.6895 78.48 20.52H80.48C80.48 19.1105 79.9207 17.927 78.8288 17.1317C77.783 16.37 76.3543 16.04 74.72 16.04V18.04ZM78.48 20.52C78.48 21.3767 78.1746 21.9423 77.648 22.3291C77.0752 22.7498 76.1261 23.04 74.72 23.04V25.04C76.3539 25.04 77.7848 24.7102 78.832 23.9409C79.9254 23.1377 80.48 21.9433 80.48 20.52H78.48ZM74.72 23.04H71.6V25.04H74.72V23.04ZM87.6313 40H86.6313V41H87.6313V40ZM93.0313 40V41H94.0313V40H93.0313ZM101.831 40H100.831V41H101.831V40ZM107.231 40V41H108.231V40H107.231ZM93.0313 22.08H92.0313L93.9257 22.5272L93.0313 22.08ZM93.0313 10.8H94.0313V9.8H93.0313V10.8ZM87.6313 10.8V9.8H86.6313V10.8H87.6313ZM87.6313 41H93.0313V39H87.6313V41ZM94.0313 40V28.6H92.0313V40H94.0313ZM94.0313 28.6C94.0313 26.9886 94.4846 25.9681 95.0625 25.3574C95.64 24.7472 96.4414 24.44 97.3513 24.44V22.44C95.9812 22.44 94.6225 22.9128 93.61 23.9826C92.5979 25.0519 92.0313 26.6114 92.0313 28.6H94.0313ZM97.3513 24.44C98.498 24.44 99.3202 24.7691 99.8656 25.3528C100.42 25.9464 100.831 26.9552 100.831 28.6H102.831C102.831 26.6448 102.342 25.0736 101.327 23.9872C100.302 22.8909 98.8845 22.44 97.3513 22.44V24.44ZM100.831 28.6V40H102.831V28.6H100.831ZM101.831 41H107.231V39H101.831V41ZM108.231 40V27.28H106.231V40H108.231ZM108.231 27.28C108.231 24.4368 107.294 22.0384 105.674 20.3439C104.053 18.6487 101.806 17.72 99.3113 17.72V19.72C101.297 19.72 103.009 20.4513 104.229 21.7261C105.448 23.0016 106.231 24.8832 106.231 27.28H108.231ZM99.3113 17.72C97.6357 17.72 96.1713 18.0204 94.9472 18.6795C93.7108 19.3452 92.7811 20.3443 92.1368 21.6328L93.9257 22.5272C94.4014 21.5757 95.0517 20.8948 95.8954 20.4405C96.7512 19.9796 97.8668 19.72 99.3113 19.72V17.72ZM94.0313 22.08V10.8H92.0313V22.08H94.0313ZM93.0313 9.8H87.6313V11.8H93.0313V9.8ZM86.6313 10.8V40H88.6313V10.8H86.6313ZM120.593 41.32L121.515 41.7065L121.516 41.704L120.593 41.32ZM129.793 19.2L130.716 19.584L131.292 18.2H129.793V19.2ZM123.393 19.2V18.2H122.677L122.446 18.878L123.393 19.2ZM119.353 31.08L120.294 31.4187L120.297 31.4104L120.3 31.402L119.353 31.08ZM118.473 34.4L117.49 34.5821L119.456 34.5821L118.473 34.4ZM117.593 31.08L116.646 31.402L116.649 31.4104L116.652 31.4187L117.593 31.08ZM113.553 19.2L114.5 18.878L114.269 18.2H113.553V19.2ZM107.033 19.2V18.2H105.535L106.109 19.5836L107.033 19.2ZM115.273 39.04L116.226 39.3432L116.337 38.9944L116.196 38.6564L115.273 39.04ZM114.993 39.92L115.944 40.23L115.946 40.2232L114.993 39.92ZM108.553 42.8L108.795 41.8299L107.732 41.5641L107.565 42.6468L108.553 42.8ZM107.753 47.96L106.765 47.8068L106.631 48.6705L107.469 48.9188L107.753 47.96ZM111.353 49.36C114.007 49.36 116.109 48.5803 117.784 47.1828C119.435 45.8049 120.603 43.8828 121.515 41.7065L119.671 40.9335C118.823 42.9572 117.811 44.5551 116.502 45.6472C115.217 46.7197 113.579 47.36 111.353 47.36V49.36ZM121.516 41.704L130.716 19.584L128.869 18.816L119.669 40.936L121.516 41.704ZM129.793 18.2H123.393V20.2H129.793V18.2ZM122.446 18.878L118.406 30.758L120.3 31.402L124.34 19.522L122.446 18.878ZM118.412 30.7413C118.031 31.8007 117.698 33.0943 117.49 34.2179L119.456 34.5821C119.648 33.5457 119.955 32.3593 120.294 31.4187L118.412 30.7413ZM119.456 34.2179C119.248 33.0943 118.915 31.8007 118.534 30.7413L116.652 31.4187C116.991 32.3593 117.298 33.5457 117.49 34.5821L119.456 34.2179ZM118.54 30.758L114.5 18.878L112.606 19.522L116.646 31.402L118.54 30.758ZM113.553 18.2H107.033V20.2H113.553V18.2ZM106.109 19.5836L114.349 39.4236L116.196 38.6564L107.956 18.8164L106.109 19.5836ZM114.32 38.7368L114.04 39.6168L115.946 40.2232L116.226 39.3432L114.32 38.7368ZM114.042 39.61C113.786 40.3966 113.394 41.0118 112.904 41.4251C112.425 41.8279 111.806 42.08 110.993 42.08V44.08C112.26 44.08 113.34 43.6721 114.192 42.9549C115.031 42.2482 115.6 41.2834 115.944 40.23L114.042 39.61ZM110.993 42.08C110.18 42.08 109.503 42.0068 108.795 41.8299L108.31 43.7701C109.203 43.9932 110.046 44.08 110.993 44.08V42.08ZM107.565 42.6468L106.765 47.8068L108.741 48.1132L109.541 42.9532L107.565 42.6468ZM107.469 48.9188C108.694 49.2817 110.254 49.36 111.353 49.36V47.36C110.292 47.36 108.972 47.2783 108.037 47.0012L107.469 48.9188ZM142.221 40V41H143.221V40H142.221ZM142.221 35.2H143.221V34.2H142.221V35.2ZM138.301 23.8V22.8H137.301V23.8H138.301ZM142.701 23.8V24.8H143.701V23.8H142.701ZM142.701 19.2H143.701V18.2H142.701V19.2ZM138.301 19.2H137.301V20.2H138.301V19.2ZM138.301 14.44H139.301V13.3309L138.198 13.4453L138.301 14.44ZM132.901 15L132.798 14.0053L131.901 14.0983V15H132.901ZM132.901 19.2V20.2H133.901V19.2H132.901ZM129.981 19.2V18.2H128.981V19.2H129.981ZM129.981 23.8H128.981V24.8H129.981V23.8ZM132.901 23.8H133.901V22.8H132.901V23.8ZM139.261 41H142.221V39H139.261V41ZM143.221 40V35.2H141.221V40H143.221ZM142.221 34.2H139.981V36.2H142.221V34.2ZM139.981 34.2C139.653 34.2 139.535 34.1104 139.487 34.0577C139.426 33.9915 139.301 33.7926 139.301 33.28H137.301C137.301 34.0874 137.497 34.8485 138.016 35.4123C138.547 35.9896 139.269 36.2 139.981 36.2V34.2ZM139.301 33.28V23.8H137.301V33.28H139.301ZM138.301 24.8H142.701V22.8H138.301V24.8ZM143.701 23.8V19.2H141.701V23.8H143.701ZM142.701 18.2H138.301V20.2H142.701V18.2ZM139.301 19.2V14.44H137.301V19.2H139.301ZM138.198 13.4453L132.798 14.0053L133.004 15.9947L138.404 15.4347L138.198 13.4453ZM131.901 15V19.2H133.901V15H131.901ZM132.901 18.2H129.981V20.2H132.901V18.2ZM128.981 19.2V23.8H130.981V19.2H128.981ZM129.981 24.8H132.901V22.8H129.981V24.8ZM131.901 23.8V33.56H133.901V23.8H131.901ZM131.901 33.56C131.901 35.9716 132.499 37.8896 133.839 39.192C135.174 40.4893 137.064 41 139.261 41V39C137.338 39 136.049 38.5507 135.233 37.758C134.423 36.9704 133.901 35.6684 133.901 33.56H131.901ZM144.506 40H143.506V41H144.506V40ZM149.906 40V41H150.906V40H149.906ZM158.706 40H157.706V41H158.706V40ZM164.106 40V41H165.106V40H164.106ZM149.906 22.08H148.906L150.801 22.5272L149.906 22.08ZM149.906 10.8H150.906V9.8H149.906V10.8ZM144.506 10.8V9.8H143.506V10.8H144.506ZM144.506 41H149.906V39H144.506V41ZM150.906 40V28.6H148.906V40H150.906ZM150.906 28.6C150.906 26.9886 151.36 25.9681 151.938 25.3574C152.515 24.7472 153.316 24.44 154.226 24.44V22.44C152.856 22.44 151.497 22.9128 150.485 23.9826C149.473 25.0519 148.906 26.6114 148.906 28.6H150.906ZM154.226 24.44C155.373 24.44 156.195 24.7691 156.741 25.3528C157.295 25.9464 157.706 26.9552 157.706 28.6H159.706C159.706 26.6448 159.217 25.0736 158.202 23.9872C157.177 22.8909 155.759 22.44 154.226 22.44V24.44ZM157.706 28.6V40H159.706V28.6H157.706ZM158.706 41H164.106V39H158.706V41ZM165.106 40V27.28H163.106V40H165.106ZM165.106 27.28C165.106 24.4368 164.169 22.0384 162.549 20.3439C160.928 18.6487 158.681 17.72 156.186 17.72V19.72C158.172 19.72 159.884 20.4513 161.104 21.7261C162.323 23.0016 163.106 24.8832 163.106 27.28H165.106ZM156.186 17.72C154.511 17.72 153.046 18.0204 151.822 18.6795C150.586 19.3452 149.656 20.3443 149.012 21.6328L150.801 22.5272C151.276 21.5757 151.927 20.8948 152.77 20.4405C153.626 19.9796 154.742 19.72 156.186 19.72V17.72ZM150.906 22.08V10.8H148.906V22.08H150.906ZM149.906 9.8H144.506V11.8H149.906V9.8ZM143.506 10.8V40H145.506V10.8H143.506ZM167.123 40H166.123V41H167.123V40ZM172.523 40V41H173.523V40H172.523ZM181.323 40H180.323V41H181.323V40ZM186.723 40V41H187.723V40H186.723ZM195.123 40H194.123V41H195.123V40ZM200.523 40V41H201.523V40H200.523ZM185.563 22.64L184.683 23.1149L185.551 24.722L186.438 23.1256L185.563 22.64ZM172.443 22.24H171.443L173.35 22.662L172.443 22.24ZM172.443 19.2H173.443V18.2H172.443V19.2ZM167.123 19.2V18.2H166.123V19.2H167.123ZM167.123 41H172.523V39H167.123V41ZM173.523 40V28.6H171.523V40H173.523ZM173.523 28.6C173.523 26.9886 173.977 25.9681 174.555 25.3574C175.132 24.7472 175.934 24.44 176.843 24.44V22.44C175.473 22.44 174.115 22.9128 173.102 23.9826C172.09 25.0519 171.523 26.6114 171.523 28.6H173.523ZM176.843 24.44C177.99 24.44 178.812 24.7691 179.358 25.3528C179.913 25.9464 180.323 26.9552 180.323 28.6H182.323C182.323 26.6448 181.834 25.0736 180.819 23.9872C179.795 22.8909 178.377 22.44 176.843 22.44V24.44ZM180.323 28.6V40H182.323V28.6H180.323ZM181.323 41H186.723V39H181.323V41ZM187.723 40V28.6H185.723V40H187.723ZM187.723 28.6C187.723 26.7157 188.133 25.7293 188.626 25.2061C189.104 24.6987 189.84 24.44 190.963 24.44V22.44C189.566 22.44 188.182 22.7613 187.171 23.8339C186.174 24.8907 185.723 26.4843 185.723 28.6H187.723ZM190.963 24.44C191.963 24.44 192.701 24.7518 193.206 25.3285C193.727 25.9245 194.123 26.9452 194.123 28.6H196.123C196.123 26.6548 195.66 25.0955 194.711 24.0115C193.746 22.9082 192.404 22.44 190.963 22.44V24.44ZM194.123 28.6V40H196.123V28.6H194.123ZM195.123 41H200.523V39H195.123V41ZM201.523 40V27.28H199.523V40H201.523ZM201.523 27.28C201.523 24.4368 200.586 22.0384 198.966 20.3439C197.345 18.6487 195.098 17.72 192.603 17.72V19.72C194.589 19.72 196.302 20.4513 197.521 21.7261C198.74 23.0016 199.523 24.8832 199.523 27.28H201.523ZM192.603 17.72C190.654 17.72 189.058 18.0956 187.736 18.8732C186.413 19.6518 185.451 20.7841 184.689 22.1544L186.438 23.1256C187.076 21.9759 187.814 21.1482 188.751 20.5968C189.689 20.0444 190.912 19.72 192.603 19.72V17.72ZM186.443 22.1651C184.898 19.3007 182.067 17.72 178.803 17.72V19.72C181.38 19.72 183.509 20.9393 184.683 23.1149L186.443 22.1651ZM178.803 17.72C177.082 17.72 175.583 18.0425 174.34 18.7372C173.086 19.4385 172.158 20.4843 171.537 21.818L173.35 22.662C173.809 21.6757 174.46 20.9615 175.317 20.4828C176.184 19.9975 177.325 19.72 178.803 19.72V17.72ZM173.443 22.24V19.2H171.443V22.24H173.443ZM172.443 18.2H167.123V20.2H172.443V18.2ZM166.123 19.2V40H168.123V19.2H166.123Z" fill="black"/>
<path d="M19.7146 25.0113C19.1887 35.0624 10.8576 43.12 0.5 43.4882V4.5118C10.8576 4.88008 19.1887 12.9375 19.7146 22.9887L20.7132 22.9887C21.2318 13.0763 29.3416 5.103 39.5 4.53148V43.4687C29.3416 42.8971 21.2318 34.9238 20.7132 25.0113L19.7146 25.0113Z" fill="#FF6428" stroke="black"/>
</svg>
